<svg xmlns="http://www.w3.org/2000/svg" version="1.1" xmlns:xlink="http://www.w3.org/1999/xlink" xmlns:svgjs="http://svgjs.dev/svgjs" width="1500" height="1500" viewBox="0 0 1500 1500"><g transform="matrix(1,0,0,1,-0.3236151603499593,-0.3236151603499593)"><svg viewBox="0 0 343 343" data-background-color="#ff0000" preserveAspectRatio="xMidYMid meet" height="1500" width="1500" xmlns="http://www.w3.org/2000/svg" xmlns:xlink="http://www.w3.org/1999/xlink"><g id="tight-bounds" transform="matrix(1,0,0,1,0.07400000000001228,0.07400000000001228)"><svg viewBox="0 0 342.8515585177538 342.8515585177538" height="342.8515585177538" width="342.8515585177538"><g><svg></svg></g><g><svg viewBox="0 0 342.8515585177538 342.8515585177538" height="342.8515585177538" width="342.8515585177538"><g><path d="M0 171.426c0-94.676 76.75-171.426 171.426-171.426 94.676 0 171.426 76.75 171.426 171.426 0 94.676-76.75 171.426-171.426 171.426-94.676 0-171.426-76.75-171.426-171.426zM171.426 338.739c92.404 0 167.313-74.909 167.313-167.313 0-92.404-74.909-167.313-167.313-167.313-92.404 0-167.313 74.909-167.313 167.313 0 92.404 74.909 167.313 167.313 167.313z" data-fill-palette-color="tertiary" fill="#ffffff" stroke="transparent"></path><ellipse rx="164.56874808852183" ry="164.56874808852183" cx="171.4257792588769" cy="171.4257792588769" fill="#ffffff" stroke="transparent" stroke-width="0" fill-opacity="1" data-fill-palette-color="tertiary"></ellipse></g><g transform="matrix(1,0,0,1,64.84655864529836,111.72540191590966)"><svg viewBox="0 0 213.15844122715708 119.40075468593449" height="119.40075468593449" width="213.15844122715708"><g><svg viewBox="0 0 213.15844122715708 119.40075468593449" height="119.40075468593449" width="213.15844122715708"><g><svg viewBox="0 0 213.15844122715708 119.40075468593449" height="119.40075468593449" width="213.15844122715708"><g transform="matrix(1,0,0,1,0,73.79445651661683)"><svg viewBox="0 0 213.15844122715708 45.60629816931765" height="45.60629816931765" width="213.15844122715708"><g id="textblocktransform"><svg viewBox="0 0 213.15844122715708 45.60629816931765" height="45.60629816931765" width="213.15844122715708" id="textblock"><g><svg viewBox="0 0 213.15844122715708 45.60629816931765" height="45.60629816931765" width="213.15844122715708"><g transform="matrix(1,0,0,1,0,0)"><svg width="213.15844122715708" viewBox="1.7 -34 161.94 34.65" height="45.60629816931765" data-palette-color="#ff0000"><path d="M9.75 0.65L9.75 0.65Q5.95 0.65 3.83-1.53 1.7-3.7 1.7-7.6L1.7-7.6Q1.7-11.15 3.25-14.05 4.8-16.95 7.43-18.68 10.05-20.4 13.2-20.4L13.2-20.4Q16.2-20.4 18-18.93 19.8-17.45 19.8-15L19.8-15Q19.8-13.05 18.6-11.4 17.4-9.75 15.4-8.78 13.4-7.8 10.95-7.8L10.95-7.8Q7.95-7.8 6.05-9.15L6.05-9.15Q6.1-6.85 7.63-5.45 9.15-4.05 11.55-4.05L11.55-4.05Q13-4.05 14.53-4.58 16.05-5.1 17.15-6L17.15-6Q17.85-6.6 18.45-6.6L18.45-6.6Q18.95-6.6 19.28-6.28 19.6-5.95 19.6-5.45L19.6-5.45Q19.6-4.35 17.7-2.55L17.7-2.55Q14.35 0.65 9.75 0.65ZM10.5-11.1L10.5-11.1Q12.3-11.1 13.5-11.85 14.7-12.6 14.7-13.75L14.7-13.75Q14.7-14.7 13.9-15.23 13.1-15.75 11.7-15.75L11.7-15.75Q9.85-15.75 8.47-14.78 7.1-13.8 6.5-12.05L6.5-12.05Q7.2-11.6 8.3-11.35 9.4-11.1 10.5-11.1ZM29.9 0.65L29.9 0.65Q26.9 0.65 25.17-1.35 23.45-3.35 23.45-6.8L23.45-6.8Q23.45-9.35 24.27-11.8 25.1-14.25 26.6-16.2 28.1-18.15 30.1-19.3 32.1-20.45 34.45-20.45L34.45-20.45Q35.95-20.45 37.12-20 38.3-19.55 39.2-18.85L39.2-18.85Q39.15-22.25 38.85-24.95 38.55-27.65 37.4-29.95L37.4-29.95Q37.2-30.35 37.07-30.68 36.95-31 36.95-31.3L36.95-31.3Q36.95-32 37.52-32.6 38.1-33.2 38.95-33.6 39.8-34 40.55-34L40.55-34Q41.9-34 42.57-32.83 43.25-31.65 43.45-29.63 43.65-27.6 43.65-25L43.65-25Q43.65-21.2 43.3-18.15 42.95-15.1 42.65-12.8L42.65-12.8Q42.45-11.3 42.3-10.2 42.15-9.1 42.15-8.4L42.15-8.4Q42.15-4.85 45.2-4.2L45.2-4.2Q46-4.05 46-3.15L46-3.15Q46-2.6 45.67-1.75 45.35-0.9 44.5-0.23 43.65 0.45 42.05 0.45L42.05 0.45Q39.9 0.45 39.15-1 38.4-2.45 38.4-5.4L38.4-5.4Q37-2.85 34.85-1.1 32.7 0.65 29.9 0.65ZM31.45-4.7L31.45-4.7Q32.85-4.7 34.25-5.6 35.65-6.5 36.75-8.05L36.75-8.05Q37.4-9 37.92-10.23 38.45-11.45 38.9-12.7L38.9-12.7Q36.35-15 33.25-15L33.25-15Q30.55-15 28.95-13.38 27.35-11.75 27.35-9.35L27.35-9.35Q27.35-7.3 28.55-6 29.75-4.7 31.45-4.7ZM55.49 0.65L55.49 0.65Q52.99 0.65 51.62-0.8 50.24-2.25 50.24-5L50.24-5Q50.24-6.95 50.8-9L50.8-9Q51.05-9.85 51.2-10.7 51.34-11.55 51.34-12.4L51.34-12.4Q51.34-14.6 49.99-15.25L49.99-15.25Q48.7-15.95 48.7-16.75L48.7-16.75Q48.7-17.55 49.37-18.35 50.05-19.15 51.05-19.68 52.05-20.2 53.05-20.2L53.05-20.2Q55.89-20.2 55.89-15.55L55.89-15.55Q55.89-14.05 55.67-12.78 55.45-11.5 55.14-10.35L55.14-10.35Q54.95-9.55 54.82-8.75 54.7-7.95 54.7-7.35L54.7-7.35Q54.7-4.85 57.14-4.85L57.14-4.85Q59.45-4.85 61.45-7.3 63.45-9.75 64.75-14.15L64.75-14.15 64.69-15.1Q64.59-17.6 65.57-18.9 66.55-20.2 68.44-20.2L68.44-20.2Q70.09-20.2 70.09-19.15L70.09-19.15Q70.09-18.8 69.97-18.25 69.84-17.7 69.59-16.95L69.59-16.95Q69.09-15.1 68.75-13.03 68.39-10.95 68.39-9.2L68.39-9.2Q68.39-7.25 69-5.98 69.59-4.7 71.25-4.25L71.25-4.25Q71.69-4.2 71.97-3.98 72.25-3.75 72.25-3.05L72.25-3.05Q72.25-1.85 71.25-0.7 70.25 0.45 68.34 0.45L68.34 0.45Q64.69 0.45 64.69-4.7L64.69-4.7Q64.69-5.6 64.84-7.4L64.84-7.4 64.75-7.45Q61.59 0.65 55.49 0.65ZM84.74 0.5L84.74 0.5Q84.14 0.5 83.52 0.3 82.89 0.1 82.49-0.65 82.09-1.4 82.09-2.95L82.09-2.95Q82.09-4.05 82.27-5.65 82.44-7.25 82.74-9.1L82.74-9.1Q83.14-11.6 83.42-14.38 83.69-17.15 83.69-20.05L83.69-20.05Q83.69-22.4 83.47-24.13 83.24-25.85 82.89-26.8L82.89-26.8Q80.99-26.75 79.29-26.55 77.59-26.35 75.84-25.9L75.84-25.9Q75.39-25.85 75.07-25.78 74.74-25.7 74.44-25.7L74.44-25.7Q73.99-25.7 73.79-25.88 73.59-26.05 73.59-26.75L73.59-26.75Q73.59-27.6 73.84-28.53 74.09-29.45 74.59-30.1L74.59-30.1Q75.09-30.8 75.77-31.13 76.44-31.45 77.24-31.55L77.24-31.55Q78.49-31.7 80.44-31.83 82.39-31.95 84.72-32.05 87.04-32.15 89.29-32.15L89.29-32.15Q92.94-32.15 94.52-32.1 96.09-32.05 96.64-31.95L96.64-31.95Q97.34-31.85 97.62-31.53 97.89-31.2 97.89-30.5L97.89-30.5Q97.89-29.15 96.69-27.8L96.69-27.8Q96.19-27.2 95.64-26.88 95.09-26.55 94.19-26.6L94.19-26.6Q93.39-26.7 91.84-26.75 90.29-26.8 88.39-26.8L88.39-26.8Q88.34-25.05 88.12-22.73 87.89-20.4 87.59-18.05L87.59-18.05Q87.29-15.75 87.09-13.45 86.89-11.15 86.89-9.25L86.89-9.25Q86.89-7.5 87.22-6.18 87.54-4.85 88.54-3.9L88.54-3.9Q89.24-3.2 89.24-2.4L89.24-2.4Q89.24-1.3 87.99-0.4 86.74 0.5 84.74 0.5ZM101.14 0.65L101.14 0.65Q98.64 0.65 97.27-0.8 95.89-2.25 95.89-5L95.89-5Q95.89-6.95 96.44-9L96.44-9Q96.69-9.85 96.84-10.7 96.99-11.55 96.99-12.4L96.99-12.4Q96.99-14.6 95.64-15.25L95.64-15.25Q94.34-15.95 94.34-16.75L94.34-16.75Q94.34-17.55 95.02-18.35 95.69-19.15 96.69-19.68 97.69-20.2 98.69-20.2L98.69-20.2Q101.54-20.2 101.54-15.55L101.54-15.55Q101.54-14.05 101.31-12.78 101.09-11.5 100.79-10.35L100.79-10.35Q100.59-9.55 100.46-8.75 100.34-7.95 100.34-7.35L100.34-7.35Q100.34-4.85 102.79-4.85L102.79-4.85Q105.09-4.85 107.09-7.3 109.09-9.75 110.39-14.15L110.39-14.15 110.34-15.1Q110.24-17.6 111.22-18.9 112.19-20.2 114.09-20.2L114.09-20.2Q115.74-20.2 115.74-19.15L115.74-19.15Q115.74-18.8 115.61-18.25 115.49-17.7 115.24-16.95L115.24-16.95Q114.74-15.1 114.39-13.03 114.04-10.95 114.04-9.2L114.04-9.2Q114.04-7.25 114.64-5.98 115.24-4.7 116.89-4.25L116.89-4.25Q117.34-4.2 117.61-3.98 117.89-3.75 117.89-3.05L117.89-3.05Q117.89-1.85 116.89-0.7 115.89 0.45 113.99 0.45L113.99 0.45Q110.34 0.45 110.34-4.7L110.34-4.7Q110.34-5.6 110.49-7.4L110.49-7.4 110.39-7.45Q107.24 0.65 101.14 0.65ZM130.84 0.65L130.84 0.65Q128.99 0.65 127.66 0 126.34-0.65 125.34-1.65L125.34-1.65Q124.84-0.8 124.16-0.13 123.49 0.55 122.64 0.55L122.64 0.55Q122.09 0.55 121.59 0.23 121.09-0.1 121.19-0.65L121.19-0.65Q121.94-4.65 122.46-8.75 122.99-12.85 122.99-17.1L122.99-17.1Q122.99-20.65 122.74-23.75 122.49-26.85 121.19-29.45L121.19-29.45Q120.94-29.95 120.76-30.4 120.59-30.85 120.59-31.25L120.59-31.25Q120.59-32.2 121.69-33.1 122.79-34 124.04-34L124.04-34Q125.84-34 126.49-31.8 127.14-29.6 127.14-25.3L127.14-25.3Q127.14-21.65 126.81-18.63 126.49-15.6 126.09-13.45L126.09-13.45Q127.49-16.4 129.91-18.43 132.34-20.45 135.39-20.45L135.39-20.45Q138.44-20.45 140.16-18.43 141.89-16.4 141.89-12.95L141.89-12.95Q141.89-10.4 141.09-7.98 140.29-5.55 138.84-3.6 137.39-1.65 135.36-0.5 133.34 0.65 130.84 0.65ZM131.99-4.75L131.99-4.75Q134.84-4.75 136.39-6.55 137.94-8.35 137.94-10.7L137.94-10.7Q137.94-12.75 136.81-13.88 135.69-15 133.84-15L133.84-15Q131.99-15 130.54-13.88 129.09-12.75 128.09-10.93 127.09-9.1 126.54-7L126.54-7Q127.69-5.9 129.11-5.33 130.54-4.75 131.99-4.75ZM153.59 0.65L153.59 0.65Q149.78 0.65 147.66-1.53 145.53-3.7 145.53-7.6L145.53-7.6Q145.53-11.15 147.09-14.05 148.64-16.95 151.26-18.68 153.89-20.4 157.03-20.4L157.03-20.4Q160.03-20.4 161.84-18.93 163.64-17.45 163.64-15L163.64-15Q163.64-13.05 162.44-11.4 161.24-9.75 159.24-8.78 157.24-7.8 154.78-7.8L154.78-7.8Q151.78-7.8 149.89-9.15L149.89-9.15Q149.94-6.85 151.46-5.45 152.99-4.05 155.39-4.05L155.39-4.05Q156.84-4.05 158.36-4.58 159.89-5.1 160.99-6L160.99-6Q161.69-6.6 162.28-6.6L162.28-6.6Q162.78-6.6 163.11-6.28 163.44-5.95 163.44-5.45L163.44-5.45Q163.44-4.35 161.53-2.55L161.53-2.55Q158.19 0.65 153.59 0.65ZM154.34-11.1L154.34-11.1Q156.14-11.1 157.34-11.85 158.53-12.6 158.53-13.75L158.53-13.75Q158.53-14.7 157.74-15.23 156.94-15.75 155.53-15.75L155.53-15.75Q153.69-15.75 152.31-14.78 150.94-13.8 150.34-12.05L150.34-12.05Q151.03-11.6 152.14-11.35 153.24-11.1 154.34-11.1Z" opacity="1" transform="matrix(1,0,0,1,0,0)" fill="#ff0000" class="wordmark-text-0" data-fill-palette-color="quaternary" id="text-0"></path></svg></g></svg></g></svg></g></svg></g><g transform="matrix(1,0,0,1,82.74215635241092,0)"><svg viewBox="0 0 47.67412852233525 63.02790406999699" height="63.02790406999699" width="47.67412852233525"><g><svg xmlns="http://www.w3.org/2000/svg" xmlns:xlink="http://www.w3.org/1999/xlink" version="1.1" x="0" y="0" viewBox="15.962 4.9996637493030445 68.076 90.00033625069696" enable-background="new 0 0 100 100" xml:space="preserve" height="63.02790406999699" width="47.67412852233525" class="icon-icon-0" data-fill-palette-color="quaternary" id="icon-0"><g fill="#ff0000" data-fill-palette-color="quaternary"><path fill="none" d="M58.79 24.9L52.697 27.569C51.603 28.663 49.206 28.663 48.108 27.569L40.423 24.132C39.744 26.798 40.427 30.888 40.429 30.888A5.6 5.6 0 0 0 38.587 30.025C39.349 38.298 44.199 44.676 50.072 44.676 56.042 44.676 60.953 38.086 61.59 29.616 61.67 29.069 61.713 28.509 61.721 27.942L59.859 30.081C60.402 28.878 59.634 26.694 58.79 24.9"></path><path d="M55.036 54.125H74.568C71.967 48.835 66.747 45.065 60.6 44.503 60.566 46.092 57.792 50.313 55.036 54.125" fill="#ff0000" data-fill-palette-color="quaternary"></path><path d="M39.545 44.504C33.396 45.066 28.179 48.835 25.573 54.125H44.624C42.11 50.313 39.579 46.092 39.545 44.504" fill="#ff0000" data-fill-palette-color="quaternary"></path><circle cx="50" cy="73.043" r="1.7" fill="#ff0000" data-fill-palette-color="quaternary"></circle><path d="M77.413 92.207H22.588A1.397 1.397 0 0 0 22.588 95H77.413A1.397 1.397 0 0 0 77.413 92.207" fill="#ff0000" data-fill-palette-color="quaternary"></path><path d="M25.758 91.381H74.245A3.264 3.264 0 0 0 77.509 88.116L84.038 57.389A3.265 3.265 0 0 0 80.773 54.124H74.569C74.657 54.299 74.742 54.475 74.823 54.652H80.477C82.262 54.652 83.711 56.083 83.711 57.847L77.18 87.654C77.18 89.42 75.733 90.851 73.947 90.851H26.053C24.267 90.851 22.82 89.418 22.82 87.654L16.29 57.849C16.29 56.082 17.737 54.654 19.522 54.654H25.319C25.4 54.474 25.487 54.3 25.573 54.126H19.227A3.265 3.265 0 0 0 15.962 57.391L22.491 88.118A3.266 3.266 0 0 0 25.758 91.381" fill="#ff0000" data-fill-palette-color="quaternary"></path><path d="M44.975 54.653L44.622 54.126H25.573C25.487 54.301 25.4 54.478 25.32 54.653z" fill="#ff0000" data-fill-palette-color="quaternary"></path><path d="M55.035 54.126H51.435L51.254 51.547C52.474 50.917 53.419 49.606 53.419 48.273 53.419 48.273 51.605 49.074 49.758 49.074 47.908 49.074 46.096 48.273 46.096 48.273 46.096 49.606 47.04 50.917 48.259 51.547L48.078 54.126H44.623C44.74 54.304 44.856 54.48 44.976 54.653H74.823A14 14 0 0 0 74.569 54.126z" fill="#ff0000" data-fill-palette-color="quaternary"></path><path d="M32.247 14.827L32.155 16.093A1.044 1.044 0 0 0 32.013 18.114L31.174 29.871 32.332 33.347 33.49 29.871 32.65 18.114C33.069 17.976 33.374 17.586 33.374 17.121 33.374 16.603 32.999 16.176 32.508 16.093L32.423 14.928 34.432 16.091 34.513 16.139 38.317 18.34 38.07 21.479A14.4 14.4 0 0 0 36.826 28.299C36.85 28.719 36.89 29.136 36.951 29.547L36.981 29.92C37.819 39.39 43.36 46.708 50.073 46.708 56.871 46.708 62.466 39.201 63.192 29.552A14.9 14.9 0 0 0 63.192 25.301 14.4 14.4 0 0 0 61.988 21.294L61.742 18.843 65.632 16.592 66.501 16.091 70.12 13.999A0.58 0.58 0 0 0 70.12 13.177L50.875 5.17A0.575 0.575 0 0 0 50.058 5.17L30.814 13.176A0.58 0.58 0 0 0 30.814 13.998zM61.591 29.617C60.954 38.087 56.043 44.677 50.073 44.677 44.2 44.677 39.349 38.299 38.588 30.026 39.105 30.156 39.738 30.407 40.43 30.889 40.429 30.889 39.745 26.799 40.424 24.133L48.109 27.57C49.207 28.664 51.604 28.664 52.698 27.57L58.79 24.9C59.634 26.694 60.402 28.878 59.859 30.081L61.721 27.942C61.714 28.509 61.671 29.069 61.591 29.617" fill="#ff0000" data-fill-palette-color="quaternary"></path></g></svg></g></svg></g><g></g></svg></g></svg></g></svg></g></svg></g><defs></defs></svg><rect width="342.8515585177538" height="342.8515585177538" fill="none" stroke="none" visibility="hidden"></rect></g></svg></g></svg>